<svg width="22" height="19" viewBox="0 0 22 19" fill="none" xmlns="http://www.w3.org/2000/svg">
<path d="M17.4166 7.52995V4.04661C17.4166 3.01985 17.4166 2.50647 17.2168 2.1143C17.041 1.76933 16.7605 1.48887 16.4156 1.3131C16.0234 1.11328 15.51 1.11328 14.4833 1.11328H7.51658C6.48982 1.11328 5.97644 1.11328 5.58427 1.3131C5.23931 1.48887 4.95884 1.76933 4.78307 2.1143C4.58325 2.50647 4.58325 3.01985 4.58325 4.04661V7.52995M4.58325 6.61328H1.83325V5.69661M17.4166 6.61328H20.1666V5.69661M5.49992 10.7383H5.50909M16.4999 10.7383H16.5091M6.23325 7.52995H15.7666C17.3067 7.52995 18.0768 7.52995 18.6651 7.82968C19.1825 8.09333 19.6032 8.51403 19.8669 9.03147C20.1666 9.61973 20.1666 10.3898 20.1666 11.9299V14.8633C20.1666 15.7175 20.1666 16.1446 20.027 16.4815C19.841 16.9308 19.4841 17.2877 19.0348 17.4737C18.6979 17.6133 18.2708 17.6133 17.4166 17.6133H16.8666C16.5259 17.6133 16.3556 17.6133 16.2131 17.5907C15.4287 17.4665 14.8134 16.8512 14.6892 16.0667C14.6666 15.9242 14.6666 15.7539 14.6666 15.4133C14.6666 15.3281 14.6666 15.2855 14.6609 15.2499C14.6299 15.0538 14.4761 14.9 14.28 14.8689C14.2443 14.8633 14.2017 14.8633 14.1166 14.8633H7.88325C7.79809 14.8633 7.75551 14.8633 7.71989 14.8689C7.52377 14.9 7.36996 15.0538 7.33889 15.2499C7.33325 15.2855 7.33325 15.3281 7.33325 15.4133C7.33325 15.7539 7.33325 15.9242 7.31068 16.0667C7.18643 16.8512 6.57118 17.4665 5.78672 17.5907C5.6442 17.6133 5.47389 17.6133 5.13325 17.6133H4.58325C3.72903 17.6133 3.30191 17.6133 2.965 17.4737C2.51578 17.2877 2.15888 16.9308 1.97281 16.4815C1.83325 16.1446 1.83325 15.7175 1.83325 14.8633V11.9299C1.83325 10.3898 1.83325 9.61973 2.13298 9.03147C2.39664 8.51403 2.81733 8.09333 3.33478 7.82968C3.92304 7.52995 4.69311 7.52995 6.23325 7.52995ZM5.95825 10.7383C5.95825 10.9914 5.75305 11.1966 5.49992 11.1966C5.24679 11.1966 5.04159 10.9914 5.04159 10.7383C5.04159 10.4852 5.24679 10.2799 5.49992 10.2799C5.75305 10.2799 5.95825 10.4852 5.95825 10.7383ZM16.9583 10.7383C16.9583 10.9914 16.753 11.1966 16.4999 11.1966C16.2468 11.1966 16.0416 10.9914 16.0416 10.7383C16.0416 10.4852 16.2468 10.2799 16.4999 10.2799C16.753 10.2799 16.9583 10.4852 16.9583 10.7383Z" stroke="white" stroke-width="2" stroke-linecap="round" stroke-linejoin="round"/>
</svg>
