<svg width="22" height="23" viewBox="0 0 22 23" fill="none" xmlns="http://www.w3.org/2000/svg">
<path d="M2.75 8.61328H19.25M8.25 8.61328L8.25 19.6133M7.15 3.11328H14.85C16.3901 3.11328 17.1602 3.11328 17.7485 3.41301C18.2659 3.67667 18.6866 4.09736 18.9503 4.61481C19.25 5.20306 19.25 5.97314 19.25 7.51328V15.2133C19.25 16.7534 19.25 17.5235 18.9503 18.1118C18.6866 18.6292 18.2659 19.0499 17.7485 19.3135C17.1602 19.6133 16.3901 19.6133 14.85 19.6133H7.15C5.60986 19.6133 4.83978 19.6133 4.25153 19.3135C3.73408 19.0499 3.31338 18.6292 3.04973 18.1118C2.75 17.5235 2.75 16.7534 2.75 15.2133V7.51328C2.75 5.97314 2.75 5.20306 3.04973 4.61481C3.31338 4.09736 3.73408 3.67667 4.25153 3.41301C4.83978 3.11328 5.60986 3.11328 7.15 3.11328Z" stroke="white" stroke-width="2" stroke-linecap="round" stroke-linejoin="round"/>
</svg>
