<svg width="20" height="19" viewBox="0 0 20 19" fill="none" xmlns="http://www.w3.org/2000/svg">
<path d="M6.33333 12.1133V13.9466M10 8.44661V13.9466M13.6667 4.77995V13.9466M6.15 17.6133H13.85C15.3901 17.6133 16.1602 17.6133 16.7485 17.3135C17.2659 17.0499 17.6866 16.6292 17.9503 16.1118C18.25 15.5235 18.25 14.7534 18.25 13.2133V5.51328C18.25 3.97314 18.25 3.20306 17.9503 2.61481C17.6866 2.09736 17.2659 1.67667 16.7485 1.41301C16.1602 1.11328 15.3901 1.11328 13.85 1.11328H6.15C4.60986 1.11328 3.83978 1.11328 3.25153 1.41301C2.73408 1.67667 2.31338 2.09736 2.04973 2.61481C1.75 3.20306 1.75 3.97314 1.75 5.51328V13.2133C1.75 14.7534 1.75 15.5235 2.04973 16.1118C2.31338 16.6292 2.73408 17.0499 3.25153 17.3135C3.83978 17.6133 4.60986 17.6133 6.15 17.6133Z" stroke="white" stroke-width="2" stroke-linecap="round" stroke-linejoin="round"/>
</svg>
