<svg width="22" height="22" viewBox="0 0 22 22" fill="none" xmlns="http://www.w3.org/2000/svg">
<g clip-path="url(#clip0_71_2531)">
<path d="M4.00002 19.9535C4.52728 20.1133 5.23943 20.1133 6.45 20.1133H15.55C16.7606 20.1133 17.4727 20.1133 18 19.9535M4.00002 19.9535C3.88697 19.9193 3.78242 19.8777 3.68327 19.8272C3.18935 19.5755 2.78778 19.1739 2.53611 18.68C2.25 18.1185 2.25 17.3834 2.25 15.9133V6.81328C2.25 5.34314 2.25 4.60807 2.53611 4.04656C2.78778 3.55263 3.18935 3.15106 3.68327 2.89939C4.24479 2.61328 4.97986 2.61328 6.45 2.61328H15.55C17.0201 2.61328 17.7552 2.61328 18.3167 2.89939C18.8106 3.15106 19.2122 3.55263 19.4639 4.04656C19.75 4.60807 19.75 5.34314 19.75 6.81328V15.9133C19.75 17.3834 19.75 18.1185 19.4639 18.68C19.2122 19.1739 18.8106 19.5755 18.3167 19.8272C18.2176 19.8777 18.113 19.9193 18 19.9535M4.00002 19.9535C4.00031 19.2454 4.00456 18.8707 4.06725 18.5555C4.34342 17.167 5.42877 16.0817 6.81718 15.8055C7.15528 15.7383 7.56185 15.7383 8.375 15.7383H13.625C14.4381 15.7383 14.8447 15.7383 15.1828 15.8055C16.5712 16.0817 17.6566 17.167 17.9327 18.5555C17.9954 18.8707 17.9997 19.2454 18 19.9535M14.5 9.17578C14.5 11.1088 12.933 12.6758 11 12.6758C9.067 12.6758 7.5 11.1088 7.5 9.17578C7.5 7.24278 9.067 5.67578 11 5.67578C12.933 5.67578 14.5 7.24278 14.5 9.17578Z" stroke="white" stroke-width="2" stroke-linecap="round" stroke-linejoin="round"/>
</g>
<defs>
<clipPath id="clip0_71_2531">
<rect width="21" height="21" fill="white" transform="translate(0.5 0.863281)"/>
</clipPath>
</defs>
</svg>
