<svg width="44" height="36" viewBox="0 0 44 36" fill="none" xmlns="http://www.w3.org/2000/svg">
<path d="M1.16663 7.5835L18.1769 19.4907C19.5543 20.4549 20.243 20.937 20.9922 21.1237C21.6539 21.2887 22.346 21.2887 23.0077 21.1237C23.7569 20.937 24.4456 20.4549 25.823 19.4907L42.8333 7.5835M11.1666 34.6668H32.8333C36.3336 34.6668 38.0838 34.6668 39.4207 33.9856C40.5967 33.3864 41.5529 32.4303 42.1521 31.2543C42.8333 29.9173 42.8333 28.1672 42.8333 24.6668V11.3335C42.8333 7.83317 42.8333 6.083 42.1521 4.74606C41.5529 3.57004 40.5967 2.61391 39.4207 2.01471C38.0838 1.3335 36.3336 1.3335 32.8333 1.3335H11.1666C7.6663 1.3335 5.91613 1.3335 4.57919 2.01471C3.40317 2.61391 2.44704 3.57004 1.84784 4.74606C1.16663 6.083 1.16663 7.83317 1.16663 11.3335V24.6668C1.16663 28.1672 1.16663 29.9173 1.84784 31.2543C2.44704 32.4303 3.40317 33.3864 4.57919 33.9856C5.91613 34.6668 7.6663 34.6668 11.1666 34.6668Z" stroke="#021A98" stroke-width="2" stroke-linecap="round" stroke-linejoin="round"/>
</svg>
