<svg width="15" height="16" viewBox="0 0 15 16" fill="none" xmlns="http://www.w3.org/2000/svg">
<path d="M11.9541 0H6.91327C5.37245 0 4.11735 1.27792 4.11735 2.84675V4.88312H5.54592V2.84675C5.54592 2.07792 6.15816 1.45455 6.91327 1.45455H11.9541C12.7092 1.45455 13.3214 2.07792 13.3214 2.84675V13.1429C13.3214 13.9117 12.7092 14.5351 11.9541 14.5351H6.91327C6.15816 14.5351 5.54592 13.9117 5.54592 13.1429V11.1169H4.11735V13.1532C4.11735 14.7221 5.37245 16 6.91327 16H11.9541C13.4949 16 14.75 14.7221 14.75 13.1532V2.84675C14.75 1.27792 13.4949 0 11.9541 0ZM7.89286 12.1558L11.9745 8L7.89286 3.84416V7.27273H0.75V8.72727H7.89286V12.1558Z" fill="#1E5C5C"/>
</svg>
