<svg width="16" height="20" viewBox="0 0 16 20" fill="none" xmlns="http://www.w3.org/2000/svg">
<path d="M9.66665 1.89136V5.33348C9.66665 5.80018 9.66665 6.03354 9.75747 6.2118C9.83737 6.3686 9.96485 6.49609 10.1217 6.57598C10.2999 6.66681 10.5333 6.66681 11 6.66681H14.4421M11.3333 10.8334H4.66665M11.3333 14.1667H4.66665M6.33331 7.50008H4.66665M9.66665 1.66675H5.33331C3.93318 1.66675 3.23312 1.66675 2.69834 1.93923C2.22793 2.17892 1.84548 2.56137 1.6058 3.03177C1.33331 3.56655 1.33331 4.26662 1.33331 5.66675V14.3334C1.33331 15.7335 1.33331 16.4336 1.6058 16.9684C1.84548 17.4388 2.22793 17.8212 2.69834 18.0609C3.23312 18.3334 3.93318 18.3334 5.33331 18.3334H10.6666C12.0668 18.3334 12.7668 18.3334 13.3016 18.0609C13.772 17.8212 14.1545 17.4388 14.3942 16.9684C14.6666 16.4336 14.6666 15.7335 14.6666 14.3334V6.66675L9.66665 1.66675Z" stroke="white" stroke-width="1.66667" stroke-linecap="round" stroke-linejoin="round"/>
</svg>
