<svg width="22" height="23" viewBox="0 0 22 23" fill="none" xmlns="http://www.w3.org/2000/svg">
<path d="M7.32449 11.9422C3.90134 9.43323 3.8601 4.88279 6.41027 2.27075C8.89858 -0.272543 13.0366 -0.272543 15.518 2.27075C18.0682 4.88279 18.027 9.42636 14.6313 11.9284C19.2367 13.8599 21.7113 17.29 22 22.3284C21.3814 22.3284 20.8315 22.3284 20.2747 22.3284C20.3091 17.1112 15.793 12.8289 10.5345 13.0763C5.88787 13.2963 1.78422 17.0356 1.67424 22.3147C1.12434 22.3147 0.567563 22.3147 0.0176603 22.3147C-0.202301 19.4415 1.59863 14.0662 7.32449 11.9422ZM15.6005 6.70434C15.6005 4.14042 13.5109 2.06454 10.947 2.07141C8.40367 2.07829 6.33466 4.15417 6.32779 6.70434C6.32091 9.26139 8.40367 11.3579 10.9607 11.3579C13.5178 11.351 15.6074 9.26139 15.6005 6.70434Z" fill="white"/>
<path d="M9.07033 22.3284C9.06346 22.3009 9.04971 22.2872 9.05659 22.2803C9.24905 21.751 8.89162 21.4692 8.57542 21.1599C8.10113 20.6993 7.64059 20.2182 7.15942 19.7301C6.5889 20.5344 6.36207 21.4073 6.32082 22.3284C5.74343 22.3284 5.19352 22.3284 4.60925 22.3284C4.67799 20.0807 5.5922 18.2935 7.44125 17.0769C9.59274 15.6609 11.8817 15.5715 14.1226 16.85C16.1984 18.0323 17.2226 19.902 17.3326 22.3216C16.7483 22.3216 16.1984 22.3216 15.6142 22.3216C15.5798 21.4073 15.3461 20.5481 14.7549 19.6889C14.5075 19.9639 14.2875 20.2251 14.0607 20.4656C13.8751 20.665 13.662 20.8506 13.4764 21.0499C13.1465 21.4073 12.5966 21.6685 12.9334 22.3284C11.593 22.3284 10.3282 22.3284 9.07033 22.3284ZM8.35546 18.5479C8.98785 19.1734 9.60649 19.7851 10.2251 20.3969C10.7063 20.4106 11.1875 20.4175 11.6755 20.4313C12.3079 19.8058 12.9403 19.1802 13.5727 18.5547C12.246 17.4549 9.77146 17.448 8.35546 18.5479Z" fill="white"/>
</svg>
