<svg width="24" height="25" viewBox="0 0 24 25" fill="none" xmlns="http://www.w3.org/2000/svg">
<path d="M18.0001 16.2002C19.456 16.9315 20.7042 18.1052 21.6153 19.5729C21.7957 19.8636 21.886 20.0089 21.9172 20.2101C21.9805 20.6191 21.7009 21.1218 21.32 21.2836C21.1326 21.3633 20.9218 21.3633 20.5001 21.3633M16.0001 11.8955C17.4818 11.1592 18.5001 9.63014 18.5001 7.86328C18.5001 6.09642 17.4818 4.56739 16.0001 3.83104M14.0001 7.86328C14.0001 10.3486 11.9854 12.3633 9.50008 12.3633C7.0148 12.3633 5.00008 10.3486 5.00008 7.86328C5.00008 5.378 7.0148 3.36328 9.50008 3.36328C11.9854 3.36328 14.0001 5.378 14.0001 7.86328ZM2.55931 19.3016C4.15362 16.9078 6.66945 15.3633 9.50008 15.3633C12.3307 15.3633 14.8465 16.9078 16.4409 19.3016C16.7901 19.826 16.9648 20.0882 16.9446 20.4232C16.929 20.684 16.758 21.0033 16.5496 21.1609C16.282 21.3633 15.9139 21.3633 15.1777 21.3633H3.82244C3.08625 21.3633 2.71816 21.3633 2.45052 21.1609C2.24213 21.0033 2.07117 20.684 2.05551 20.4232C2.03541 20.0882 2.21004 19.826 2.55931 19.3016Z" stroke="white" stroke-width="2" stroke-linecap="round" stroke-linejoin="round"/>
</svg>
