<svg width="22" height="21" viewBox="0 0 22 21" fill="none" xmlns="http://www.w3.org/2000/svg">
<path d="M7.79159 12.8079C7.79159 13.9892 8.7492 14.9468 9.93047 14.9468H11.9166C13.1822 14.9468 14.2083 13.9208 14.2083 12.6551C14.2083 11.3895 13.1822 10.3634 11.9166 10.3634H10.0833C8.8176 10.3634 7.79159 9.33743 7.79159 8.07178C7.79159 6.80612 8.8176 5.78011 10.0833 5.78011H12.0694C13.2506 5.78011 14.2083 6.73772 14.2083 7.919M10.9999 4.40511V5.78011M10.9999 14.9468V16.3218M20.1666 10.3634C20.1666 15.4261 16.0625 19.5301 10.9999 19.5301C5.93731 19.5301 1.83325 15.4261 1.83325 10.3634C1.83325 5.30083 5.93731 1.19678 10.9999 1.19678C16.0625 1.19678 20.1666 5.30083 20.1666 10.3634Z" stroke="white" stroke-width="2" stroke-linecap="round" stroke-linejoin="round"/>
</svg>
