<svg width="16" height="18" viewBox="0 0 16 18" fill="none" xmlns="http://www.w3.org/2000/svg">
<path d="M8.00001 11.441C5.42064 11.441 3.12682 12.6864 1.66646 14.6192C1.35215 15.0351 1.19499 15.2431 1.20013 15.5242C1.20411 15.7414 1.34048 16.0153 1.51135 16.1494C1.73252 16.323 2.03901 16.323 2.652 16.323H13.348C13.961 16.323 14.2675 16.323 14.4887 16.1494C14.6595 16.0153 14.7959 15.7414 14.7999 15.5242C14.805 15.2431 14.6479 15.0351 14.3336 14.6192C12.8732 12.6864 10.5794 11.441 8.00001 11.441Z" stroke="#475467" stroke-width="1.4" stroke-linecap="round" stroke-linejoin="round"/>
<path d="M8.00001 9.00003C10.0222 9.00003 11.6615 7.36072 11.6615 5.33854C11.6615 3.31636 10.0222 1.67706 8.00001 1.67706C5.97783 1.67706 4.33853 3.31636 4.33853 5.33854C4.33853 7.36072 5.97783 9.00003 8.00001 9.00003Z" stroke="#475467" stroke-width="1.4" stroke-linecap="round" stroke-linejoin="round"/>
</svg>
