<svg width="202" height="40" viewBox="0 0 202 40" fill="none" xmlns="http://www.w3.org/2000/svg">
<path d="M41.9549 0.103265C41.8104 0.206529 41.6762 0.330447 41.5317 0.423385C36.8138 3.34577 32.4985 6.76383 28.6169 10.7292C24.601 14.8391 21.2046 19.4034 18.5514 24.515C16.9203 27.6542 15.5885 30.9174 14.7627 34.3664C14.422 35.7812 14.2258 37.2372 14.009 38.6829C13.9368 39.1682 13.7716 39.3541 13.2554 39.3438C11.8101 39.3025 10.3648 39.3231 8.91952 39.3231C8.22784 39.3231 8.20719 39.2818 8.32075 38.6313C8.75434 36.2872 9.37376 34.005 10.2926 31.8055C10.499 31.3201 10.1687 31.2169 9.83832 31.0723C9.48732 30.9174 9.31181 30.9897 9.17761 31.3614C8.35172 33.6436 7.60843 35.9464 7.20581 38.3525C7.17484 38.559 7.17484 38.7965 7.06128 38.9514C6.92707 39.1269 6.69995 39.3541 6.5038 39.3541C4.7488 39.3748 2.99379 39.3541 1.23878 39.3541C0.774224 39.3541 0.774224 39.1373 0.887784 38.7862C2.5602 33.4577 4.96559 28.501 8.19687 23.9367C12.5224 17.8235 17.8804 12.8048 24.0642 8.65357C28.2865 5.82412 32.767 3.52132 37.4745 1.61093C38.7959 1.07395 40.138 0.588608 41.4801 0.0929381C41.6143 0.0413058 41.7588 0.0309794 41.9033 0C41.924 0.0309794 41.9343 0.0722852 41.9549 0.103265ZM15.6815 20.1676C15.5472 20.2812 15.4234 20.3534 15.3511 20.4567C13.689 22.6975 12.2127 25.052 10.912 27.5303C10.8604 27.6336 10.8294 27.8195 10.881 27.9021C11.201 28.3978 11.8101 28.3564 12.0682 27.8401C13.2348 25.558 14.6181 23.3997 16.146 21.3345C16.2596 21.1796 16.4248 20.9111 16.3731 20.8285C16.208 20.5806 15.9395 20.4051 15.6815 20.1676ZM25.0346 11.545C24.8798 11.3591 24.7765 11.1629 24.6113 11.0803C24.5081 11.0287 24.281 11.1113 24.1778 11.2145C22.2679 13.032 20.3684 14.8701 18.4688 16.6979C18.2417 16.9147 17.963 17.1109 18.3759 17.4311C18.6856 17.6686 18.8818 17.9784 19.3257 17.5137C21.1117 15.6136 22.9492 13.7548 24.7559 11.8857C24.8488 11.7928 24.921 11.6792 25.0346 11.545Z" fill="#E0C41C"/>
<path d="M18.1179 39.3022C17.3953 39.3022 16.6726 39.2919 15.95 39.3022C15.5061 39.3022 15.3615 39.137 15.4132 38.6723C15.6919 36.3076 16.2597 34.0048 16.9617 31.7329C17.0753 31.3509 17.323 31.3302 17.6327 31.3405C19.0367 31.3818 20.4201 31.2889 21.7622 30.8552C22.0719 30.7519 22.3816 30.628 22.6603 30.4731C24.1985 29.6057 24.3637 27.5094 22.8874 26.5387C22.1441 26.0534 21.2357 25.8056 20.3891 25.4854C19.7387 25.2479 19.7181 25.2273 20.0794 24.649C21.0808 23.0071 22.0615 21.3549 23.0732 19.7129C23.4759 19.0727 23.9301 18.4634 24.3947 17.8748C24.4979 17.7406 24.787 17.6167 24.9418 17.658C27.533 18.3808 29.9591 19.4032 31.8483 21.4581C33.4175 23.162 34.0162 25.1963 34.0162 27.4165C34.0266 31.8569 31.8999 35.0168 28.0699 37.1233C24.9728 38.8272 21.597 39.3435 18.1179 39.3022Z" fill="#021A98"/>
<path d="M18.8921 9.48999C18.0043 9.43836 16.2389 9.79979 15.4956 10.2645C14.7523 10.7292 13.5135 11.7308 13.4929 12.8667C13.4825 13.3934 13.6374 13.8581 14.009 14.2298C14.2671 14.488 14.2671 14.6532 13.9987 14.9527C12.1198 17.0283 10.2616 19.1246 8.41367 21.2208C7.96976 21.7268 8.01106 21.7372 7.45358 21.3344C6.19411 20.4154 5.01722 19.4034 4.31522 17.9783C3.20027 15.7065 3.04542 13.3108 3.63386 10.8841C4.59395 6.89805 7.27808 4.47133 10.9636 3.04628C15.0104 1.48699 19.2121 1.35274 23.4654 1.9207C25.4476 2.18919 27.3884 2.6229 29.2776 3.28379C29.4118 3.33542 29.5254 3.43869 29.6493 3.51097C29.546 3.62456 29.4531 3.77946 29.3292 3.85175C26.2838 5.49365 23.3622 7.34209 20.5542 9.36607C20.1309 9.65521 19.7799 9.55195 18.8921 9.48999Z" fill="#021A98"/>
<path d="M189.754 40.0003H187.352L191.75 30.6865L184.247 15.3481H186.724L192.896 28.358L198.736 15.3481H201.175L189.754 40.0003Z" fill="#E0C41C"/>
<path d="M172.778 33.4211C169.082 33.4211 167.012 30.9818 167.012 28.4316C167.012 25.4378 169.082 23.7007 172.297 23.2202L176.991 22.518C178.507 22.2963 178.839 21.631 178.839 20.8179C178.839 18.4894 177.287 16.8262 174.404 16.8262C171.595 16.8262 169.747 18.3785 169.451 20.9287L167.382 20.4852C167.788 17.1219 170.597 14.9043 174.367 14.9043C178.95 14.9043 181.057 17.6763 181.057 21.0396V29.9469C181.057 31.3514 181.168 32.2384 181.316 32.9776H179.135C179.061 32.5711 178.913 31.3884 178.913 29.9469C178.1 31.6101 175.993 33.4211 172.778 33.4211ZM173.037 31.5362C176.4 31.5362 178.839 29.3186 178.839 25.7705V23.7746C178.728 23.8855 178.248 24.1073 177.546 24.2182L172.63 24.9574C170.56 25.253 169.267 26.3988 169.267 28.3207C169.267 29.9469 170.597 31.5362 173.037 31.5362Z" fill="#E0C41C"/>
<path d="M159.763 9.7666V15.3475H164.346V17.3434H159.763V27.9878C159.763 30.1314 160.761 31.1663 162.757 31.1663C163.385 31.1663 164.014 31.0185 164.346 30.8706V32.8295C164.051 32.9773 163.237 33.1621 162.166 33.1621C159.32 33.1621 157.546 31.425 157.546 28.2095V17.3434H153.813V15.3475H155.143C156.88 15.3475 157.62 14.5714 157.62 12.7603V9.7666H159.763Z" fill="#E0C41C"/>
<path d="M151.509 12.7235L149.439 13.4627C148.885 10.7646 146.963 8.36223 143.045 8.36223C139.904 8.36223 137.058 10.4689 137.058 13.5366C137.058 15.902 138.536 17.5283 141.197 18.1566L145.189 19.0806C149.254 20.0415 151.768 22.4069 151.768 26.1029C151.768 30.1315 148.367 33.4579 143.082 33.4579C137.316 33.4579 134.138 29.6511 133.694 25.6594L135.875 24.9572C136.208 28.3575 138.758 31.3512 143.082 31.3512C147.111 31.3512 149.439 29.1336 149.439 26.2877C149.439 23.8484 147.739 22.0743 144.745 21.3721L140.791 20.4481C137.279 19.635 134.729 17.4174 134.729 13.6844C134.729 9.61886 138.647 6.29248 142.971 6.29248C148.33 6.29248 150.77 9.3971 151.509 12.7235Z" fill="#E0C41C"/>
<path d="M127.077 9.36084V14.7939H130.736V19.1552H127.077V26.7689C127.077 28.3582 127.816 28.8756 129.22 28.8756C129.812 28.8756 130.477 28.8017 130.736 28.7278V32.7933C130.292 32.9781 129.405 33.2369 127.964 33.2369C124.416 33.2369 122.198 31.1301 122.198 27.619V19.1552H118.909V14.7939H119.833C121.755 14.7939 122.642 13.5373 122.642 11.9111V9.36084H127.077Z" fill="#021A98"/>
<path d="M115.474 10.2843C114.365 10.2843 112.924 10.7647 112.924 12.7975V14.7933H117.026V19.0068H112.924V32.9776H107.971V19.0068H104.94V14.7933H107.971V12.7236C107.971 8.62106 110.558 5.95996 114.587 5.95996C115.622 5.95996 116.62 6.14476 117.026 6.32956V10.4691C116.768 10.3951 116.287 10.2843 115.474 10.2843Z" fill="#021A98"/>
<path d="M101.784 32.9778H96.8687V14.7936H101.784V32.9778ZM96.2773 8.84305C96.2773 7.1429 97.6449 5.77539 99.308 5.77539C101.008 5.77539 102.339 7.1429 102.339 8.84305C102.339 10.4693 101.008 11.8368 99.308 11.8368C97.6449 11.8368 96.2773 10.4693 96.2773 8.84305Z" fill="#021A98"/>
<path d="M76.4648 14.7935H81.6392L85.5569 26.5097L88.9203 14.7935H93.799L88.1071 32.9777H83.1915L78.9411 20.5592L74.7647 32.9777H69.7751L63.9724 14.7935H69.1468L72.5101 26.4727L76.4648 14.7935Z" fill="#021A98"/>
<path d="M62.352 13.0193L57.769 14.4238C57.5103 12.9824 56.3276 10.7278 53.0012 10.7278C50.5249 10.7278 48.8987 12.3171 48.8987 14.0542C48.8987 15.4957 49.8227 16.6414 51.7446 17.011L55.4036 17.7132C60.1714 18.6372 62.7216 21.7419 62.7216 25.4378C62.7216 29.4665 59.3583 33.532 53.2599 33.532C46.3115 33.532 43.2438 29.0599 42.8373 25.327L47.5681 24.0703C47.7899 26.6575 49.6009 28.986 53.2969 28.986C56.0319 28.986 57.5473 27.6185 57.5473 25.7705C57.5473 24.2551 56.4015 23.0724 54.3687 22.6659L50.7097 21.9267C46.5333 21.0766 43.8352 18.3785 43.8352 14.4238C43.8352 9.76689 48.0116 6.21875 52.9643 6.21875C59.3213 6.21875 61.7607 10.0626 62.352 13.0193Z" fill="#021A98"/>
</svg>
