<svg width="1152" height="960" viewBox="0 0 1152 960" fill="none" xmlns="http://www.w3.org/2000/svg">
<path d="M1151.36 -74.5505C1147.32 -71.6605 1143.56 -68.1926 1139.52 -65.5916C1007.48 16.1939 886.716 111.851 778.084 222.825C665.697 337.845 570.644 465.581 496.393 608.633C450.745 696.488 413.475 787.81 390.362 884.334C380.828 923.926 375.338 964.675 369.271 1005.13C367.249 1018.72 362.626 1023.92 348.18 1023.63C307.732 1022.47 267.284 1023.05 226.836 1023.05C207.479 1023.05 206.901 1021.9 210.079 1003.69C222.214 938.087 239.549 874.219 265.262 812.663C271.04 799.081 261.795 796.191 252.55 792.145C242.727 787.81 237.815 789.833 234.059 800.237C210.946 864.105 190.144 928.55 178.877 995.886C178.01 1001.67 178.01 1008.31 174.832 1012.65C171.076 1017.56 164.72 1023.92 159.231 1023.92C110.115 1024.5 60.9999 1023.92 11.8845 1023.92C-1.11665 1023.92 -1.11665 1017.85 2.0614 1008.02C48.8655 858.903 116.182 720.185 206.612 592.449C327.667 421.365 477.614 280.913 650.673 164.737C768.839 85.5526 894.228 21.1068 1025.97 -32.3572C1062.95 -47.385 1100.51 -60.9677 1138.07 -74.8395C1141.83 -76.2845 1145.87 -76.5734 1149.92 -77.4404C1150.49 -76.5734 1150.78 -75.4175 1151.36 -74.5505ZM416.075 486.966C412.319 490.145 408.852 492.168 406.83 495.058C360.315 557.77 319 623.661 282.597 693.02C281.152 695.91 280.286 701.112 281.73 703.423C290.686 717.295 307.732 716.139 314.955 701.689C347.603 637.822 386.317 577.422 429.076 519.623C432.254 515.288 436.877 507.774 435.432 505.462C430.81 498.526 423.298 493.613 416.075 486.966ZM677.831 245.656C673.497 240.454 670.608 234.963 665.986 232.651C663.097 231.206 656.74 233.518 653.851 236.408C600.402 287.271 547.242 338.712 494.082 389.864C487.726 395.933 479.925 401.424 491.482 410.383C500.149 417.03 505.638 425.699 518.062 412.695C568.044 359.52 619.471 307.501 670.031 255.193C672.631 252.592 674.653 249.413 677.831 245.656Z" fill="#E0C41C"/>
</svg>
