<svg width="42" height="40" viewBox="0 0 42 40" fill="none" xmlns="http://www.w3.org/2000/svg">
<path d="M41.1299 0.103265C40.9853 0.206529 40.8511 0.330447 40.7066 0.423385C35.9887 3.34577 31.6735 6.76383 27.7918 10.7292C23.7759 14.8391 20.3795 19.4034 17.7263 24.515C16.0952 27.6542 14.7635 30.9174 13.9376 34.3664C13.5969 35.7812 13.4008 37.2372 13.184 38.6829C13.1117 39.1682 12.9465 39.3541 12.4303 39.3438C10.985 39.3025 9.53975 39.3231 8.09445 39.3231C7.40277 39.3231 7.38212 39.2818 7.49568 38.6313C7.92927 36.2872 8.54868 34.005 9.46748 31.8055C9.67395 31.3201 9.3436 31.2169 9.01324 31.0723C8.66224 30.9174 8.48674 30.9897 8.35254 31.3614C7.52665 33.6436 6.78335 35.9464 6.38073 38.3525C6.34976 38.559 6.34976 38.7965 6.2362 38.9514C6.102 39.1269 5.87488 39.3541 5.67873 39.3541C3.92372 39.3748 2.16872 39.3541 0.413712 39.3541C-0.0508489 39.3541 -0.0508488 39.1373 0.0627104 38.7862C1.73513 33.4577 4.14052 28.501 7.3718 23.9367C11.6974 17.8235 17.0553 12.8048 23.2391 8.65357C27.4615 5.82412 31.9419 3.52132 36.6494 1.61093C37.9709 1.07395 39.3129 0.588608 40.655 0.0929381C40.7892 0.0413058 40.9337 0.0309794 41.0782 0C41.0989 0.0309794 41.1092 0.0722852 41.1299 0.103265ZM14.8564 20.1676C14.7222 20.2812 14.5983 20.3534 14.526 20.4567C12.8639 22.6975 11.3877 25.052 10.0869 27.5303C10.0353 27.6336 10.0043 27.8195 10.0559 27.9021C10.376 28.3978 10.985 28.3564 11.2431 27.8401C12.4097 25.558 13.7931 23.3997 15.3209 21.3345C15.4345 21.1796 15.5997 20.9111 15.5481 20.8285C15.3829 20.5806 15.1145 20.4051 14.8564 20.1676ZM24.2095 11.545C24.0547 11.3591 23.9514 11.1629 23.7863 11.0803C23.683 11.0287 23.4559 11.1113 23.3527 11.2145C21.4428 13.032 19.5433 14.8701 17.6437 16.6979C17.4166 16.9147 17.1379 17.1109 17.5508 17.4311C17.8605 17.6686 18.0567 17.9784 18.5006 17.5137C20.2866 15.6136 22.1242 13.7548 23.9308 11.8857C24.0237 11.7928 24.096 11.6792 24.2095 11.545Z" fill="#E0C41C"/>
<path d="M17.2929 39.3024C16.5702 39.3024 15.8476 39.292 15.1249 39.3024C14.681 39.3024 14.5365 39.1371 14.5881 38.6724C14.8668 36.3077 15.4346 34.0049 16.1366 31.7331C16.2502 31.351 16.4979 31.3303 16.8077 31.3407C18.2117 31.382 19.595 31.289 20.9371 30.8553C21.2468 30.752 21.5565 30.6281 21.8352 30.4732C23.3734 29.6058 23.5386 27.5095 22.0624 26.5389C21.3191 26.0535 20.4106 25.8057 19.564 25.4856C18.9137 25.248 18.893 25.2274 19.2543 24.6491C20.2557 23.0072 21.2365 21.355 22.2482 19.7131C22.6508 19.0728 23.105 18.4636 23.5696 17.875C23.6728 17.7407 23.9619 17.6168 24.1167 17.6581C26.708 18.381 29.134 19.4033 31.0232 21.4582C32.5924 23.1621 33.1912 25.1964 33.1912 27.4166C33.2015 31.857 31.0748 35.0169 27.2448 37.1235C24.1477 38.8273 20.7719 39.3437 17.2929 39.3024Z" fill="white"/>
<path d="M18.0671 9.48999C17.1793 9.43836 15.414 9.79979 14.6707 10.2645C13.9274 10.7292 12.6886 11.7308 12.6679 12.8667C12.6576 13.3934 12.8124 13.8581 13.1841 14.2298C13.4422 14.488 13.4422 14.6532 13.1738 14.9527C11.2949 17.0283 9.43664 19.1246 7.58872 21.2208C7.14481 21.7268 7.1861 21.7372 6.62863 21.3344C5.36916 20.4154 4.19227 19.4034 3.49027 17.9783C2.37532 15.7065 2.22047 13.3108 2.80891 10.8841C3.769 6.89805 6.45313 4.47133 10.1386 3.04628C14.1855 1.48699 18.3872 1.35274 22.6405 1.9207C24.6226 2.18919 26.5634 2.6229 28.4527 3.28379C28.5869 3.33542 28.7004 3.43869 28.8243 3.51097C28.7211 3.62456 28.6282 3.77946 28.5043 3.85175C25.4588 5.49365 22.5372 7.34209 19.7292 9.36607C19.306 9.65521 18.955 9.55195 18.0671 9.48999Z" fill="white"/>
</svg>
