<svg width="201" height="40" viewBox="0 0 201 40" fill="none" xmlns="http://www.w3.org/2000/svg">
<path d="M41.1299 0.103265C40.9853 0.206529 40.8511 0.330447 40.7066 0.423385C35.9887 3.34577 31.6735 6.76383 27.7918 10.7292C23.7759 14.8391 20.3795 19.4034 17.7263 24.515C16.0952 27.6542 14.7635 30.9174 13.9376 34.3664C13.5969 35.7812 13.4008 37.2372 13.184 38.6829C13.1117 39.1682 12.9465 39.3541 12.4303 39.3438C10.985 39.3025 9.53975 39.3231 8.09445 39.3231C7.40277 39.3231 7.38212 39.2818 7.49568 38.6313C7.92927 36.2872 8.54868 34.005 9.46748 31.8055C9.67395 31.3201 9.3436 31.2169 9.01324 31.0723C8.66224 30.9174 8.48674 30.9897 8.35254 31.3614C7.52665 33.6436 6.78335 35.9464 6.38073 38.3525C6.34976 38.559 6.34976 38.7965 6.2362 38.9514C6.102 39.1269 5.87488 39.3541 5.67873 39.3541C3.92372 39.3748 2.16872 39.3541 0.413712 39.3541C-0.0508489 39.3541 -0.0508488 39.1373 0.0627104 38.7862C1.73513 33.4577 4.14052 28.501 7.3718 23.9367C11.6974 17.8235 17.0553 12.8048 23.2391 8.65357C27.4615 5.82412 31.9419 3.52132 36.6494 1.61093C37.9709 1.07395 39.3129 0.588608 40.655 0.0929381C40.7892 0.0413058 40.9337 0.0309794 41.0782 0C41.0989 0.0309794 41.1092 0.0722852 41.1299 0.103265ZM14.8564 20.1676C14.7222 20.2812 14.5983 20.3534 14.526 20.4567C12.8639 22.6975 11.3877 25.052 10.0869 27.5303C10.0353 27.6336 10.0043 27.8195 10.0559 27.9021C10.376 28.3978 10.985 28.3564 11.2431 27.8401C12.4097 25.558 13.7931 23.3997 15.3209 21.3345C15.4345 21.1796 15.5997 20.9111 15.5481 20.8285C15.3829 20.5806 15.1145 20.4051 14.8564 20.1676ZM24.2095 11.545C24.0547 11.3591 23.9514 11.1629 23.7863 11.0803C23.683 11.0287 23.4559 11.1113 23.3527 11.2145C21.4428 13.032 19.5433 14.8701 17.6437 16.6979C17.4166 16.9147 17.1379 17.1109 17.5508 17.4311C17.8605 17.6686 18.0567 17.9784 18.5006 17.5137C20.2866 15.6136 22.1242 13.7548 23.9308 11.8857C24.0237 11.7928 24.096 11.6792 24.2095 11.545Z" fill="#E0C41C"/>
<path d="M17.2929 39.3024C16.5702 39.3024 15.8476 39.292 15.1249 39.3024C14.681 39.3024 14.5365 39.1371 14.5881 38.6724C14.8668 36.3077 15.4346 34.0049 16.1366 31.7331C16.2502 31.351 16.4979 31.3303 16.8077 31.3407C18.2117 31.382 19.595 31.289 20.9371 30.8553C21.2468 30.752 21.5565 30.6281 21.8352 30.4732C23.3734 29.6058 23.5386 27.5095 22.0624 26.5389C21.3191 26.0535 20.4106 25.8057 19.564 25.4856C18.9137 25.248 18.893 25.2274 19.2543 24.6491C20.2557 23.0072 21.2365 21.355 22.2482 19.7131C22.6508 19.0728 23.105 18.4636 23.5696 17.875C23.6728 17.7407 23.9619 17.6168 24.1167 17.6581C26.708 18.381 29.134 19.4033 31.0232 21.4582C32.5924 23.1621 33.1912 25.1964 33.1912 27.4166C33.2015 31.857 31.0748 35.0169 27.2448 37.1235C24.1477 38.8273 20.7719 39.3437 17.2929 39.3024Z" fill="white"/>
<path d="M18.067 9.48999C17.1792 9.43836 15.4139 9.79979 14.6706 10.2645C13.9273 10.7292 12.6884 11.7308 12.6678 12.8667C12.6575 13.3934 12.8123 13.8581 13.184 14.2298C13.4421 14.488 13.4421 14.6532 13.1737 14.9527C11.2948 17.0283 9.43652 19.1246 7.5886 21.2208C7.14469 21.7268 7.18598 21.7372 6.62851 21.3344C5.36903 20.4154 4.19215 19.4034 3.49015 17.9783C2.3752 15.7065 2.22035 13.3108 2.80879 10.8841C3.76888 6.89805 6.45301 4.47133 10.1385 3.04628C14.1854 1.48699 18.3871 1.35274 22.6404 1.9207C24.6225 2.18919 26.5633 2.6229 28.4525 3.28379C28.5867 3.33542 28.7003 3.43869 28.8242 3.51097C28.7209 3.62456 28.628 3.77946 28.5041 3.85175C25.4587 5.49365 22.5371 7.34209 19.7291 9.36607C19.3058 9.65521 18.9548 9.55195 18.067 9.48999Z" fill="white"/>
<path d="M188.929 40.0001H186.527L190.925 30.6862L183.422 15.3479H185.899L192.071 28.3577L197.911 15.3479H200.35L188.929 40.0001Z" fill="#E0C41C"/>
<path d="M171.953 33.421C168.257 33.421 166.187 30.9817 166.187 28.4315C166.187 25.4377 168.257 23.7006 171.472 23.2201L176.166 22.5179C177.681 22.2961 178.014 21.6309 178.014 20.8177C178.014 18.4893 176.462 16.8261 173.579 16.8261C170.77 16.8261 168.922 18.3784 168.626 20.9286L166.557 20.4851C166.963 17.1218 169.772 14.9042 173.542 14.9042C178.125 14.9042 180.232 17.6762 180.232 21.0395V29.9468C180.232 31.3513 180.343 32.2383 180.49 32.9775H178.31C178.236 32.5709 178.088 31.3882 178.088 29.9468C177.275 31.61 175.168 33.421 171.953 33.421ZM172.211 31.5361C175.575 31.5361 178.014 29.3185 178.014 25.7703V23.7745C177.903 23.8854 177.423 24.1072 176.72 24.218L171.805 24.9572C169.735 25.2529 168.441 26.3987 168.441 28.3206C168.441 29.9468 169.772 31.5361 172.211 31.5361Z" fill="#E0C41C"/>
<path d="M158.938 9.76672V15.3476H163.521V17.3435H158.938V27.9879C158.938 30.1316 159.936 31.1664 161.932 31.1664C162.56 31.1664 163.189 31.0186 163.521 30.8708V32.8296C163.226 32.9775 162.412 33.1623 161.341 33.1623C158.495 33.1623 156.721 31.4252 156.721 28.2097V17.3435H152.988V15.3476H154.318C156.055 15.3476 156.795 14.5715 156.795 12.7605V9.76672H158.938Z" fill="#E0C41C"/>
<path d="M150.684 12.7236L148.614 13.4628C148.06 10.7647 146.138 8.36235 142.22 8.36235C139.079 8.36235 136.233 10.4691 136.233 13.5367C136.233 15.9021 137.711 17.5284 140.372 18.1567L144.364 19.0807C148.429 20.0416 150.943 22.4071 150.943 26.103C150.943 30.1317 147.542 33.458 142.257 33.458C136.491 33.458 133.313 29.6512 132.869 25.6595L135.05 24.9573C135.383 28.3576 137.933 31.3513 142.257 31.3513C146.286 31.3513 148.614 29.1337 148.614 26.2878C148.614 23.8485 146.914 22.0744 143.92 21.3722L139.966 20.4482C136.454 19.6351 133.904 17.4175 133.904 13.6846C133.904 9.61898 137.822 6.2926 142.146 6.2926C147.505 6.2926 149.945 9.39723 150.684 12.7236Z" fill="#E0C41C"/>
<path d="M126.252 9.36047V14.7936H129.911V19.1548H126.252V26.7685C126.252 28.3578 126.991 28.8752 128.395 28.8752C128.987 28.8752 129.652 28.8013 129.911 28.7274V32.793C129.467 32.9778 128.58 33.2365 127.139 33.2365C123.591 33.2365 121.373 31.1298 121.373 27.6186V19.1548H118.084V14.7936H119.008C120.929 14.7936 121.816 13.5369 121.816 11.9107V9.36047H126.252Z" fill="white"/>
<path d="M114.649 10.2843C113.54 10.2843 112.099 10.7647 112.099 12.7975V14.7933H116.201V19.0068H112.099V32.9776H107.146V19.0068H104.115V14.7933H107.146V12.7236C107.146 8.62106 109.733 5.95996 113.762 5.95996C114.797 5.95996 115.795 6.14476 116.201 6.32956V10.4691C115.942 10.3951 115.462 10.2843 114.649 10.2843Z" fill="white"/>
<path d="M100.959 32.9777H96.0435V14.7935H100.959V32.9777ZM95.4522 8.84293C95.4522 7.14278 96.8197 5.77527 98.4829 5.77527C100.183 5.77527 101.514 7.14278 101.514 8.84293C101.514 10.4692 100.183 11.8367 98.4829 11.8367C96.8197 11.8367 95.4522 10.4692 95.4522 8.84293Z" fill="white"/>
<path d="M75.6397 14.7933H80.8141L84.7318 26.5096L88.0952 14.7933H92.9739L87.282 32.9775H82.3664L78.116 20.5591L73.9396 32.9775H68.95L63.1473 14.7933H68.3217L71.685 26.4726L75.6397 14.7933Z" fill="white"/>
<path d="M61.5269 13.0192L56.9438 14.4237C56.6851 12.9823 55.5024 10.7277 52.176 10.7277C49.6997 10.7277 48.0735 12.317 48.0735 14.0541C48.0735 15.4955 48.9975 16.6413 50.9194 17.0109L54.5784 17.7131C59.3462 18.6371 61.8964 21.7417 61.8964 25.4377C61.8964 29.4663 58.5331 33.5319 52.4347 33.5319C45.4863 33.5319 42.4186 29.0598 42.0121 25.3268L46.7429 24.0702C46.9647 26.6574 48.7757 28.9859 52.4717 28.9859C55.2067 28.9859 56.7221 27.6183 56.7221 25.7704C56.7221 24.255 55.5763 23.0723 53.5435 22.6657L49.8845 21.9265C45.7081 21.0765 43.01 18.3784 43.01 14.4237C43.01 9.76677 47.1865 6.21863 52.1391 6.21863C58.4961 6.21863 60.9355 10.0624 61.5269 13.0192Z" fill="white"/>
</svg>
